<svg viewBox="0 0 512 317" fill="none" xmlns="http://www.w3.org/2000/svg">
<path d="M487.33 248.116V278.486L460.508 306.325H32.8766L6.05469 278.992V196.488" stroke="url(#paint0_linear)"/>
<path fill-rule="evenodd" clip-rule="evenodd" d="M10.6215 137.774C10.6215 140.017 8.80324 141.835 6.56073 141.835C4.31821 141.835 2.5 140.017 2.5 137.774C2.5 135.53 4.31821 133.712 6.56073 133.712C8.80324 133.712 10.6215 135.53 10.6215 137.774ZM11.6215 137.774C11.6215 140.569 9.35569 142.835 6.56073 142.835C3.76577 142.835 1.5 140.569 1.5 137.774C1.5 134.978 3.76577 132.712 6.56073 132.712C9.35569 132.712 11.6215 134.978 11.6215 137.774ZM10.6215 152.958C10.6215 155.202 8.80324 157.02 6.56073 157.02C4.31822 157.02 2.5 155.202 2.5 152.958C2.5 150.715 4.31822 148.897 6.56073 148.897C8.80324 148.897 10.6215 150.715 10.6215 152.958ZM11.6215 152.958C11.6215 155.754 9.35569 158.02 6.56073 158.02C3.76577 158.02 1.5 155.754 1.5 152.958C1.5 150.163 3.76577 147.897 6.56073 147.897C9.35569 147.897 11.6215 150.163 11.6215 152.958ZM6.56073 172.205C8.80324 172.205 10.6215 170.386 10.6215 168.143C10.6215 165.9 8.80324 164.082 6.56073 164.082C4.31821 164.082 2.5 165.9 2.5 168.143C2.5 170.386 4.31821 172.205 6.56073 172.205ZM6.56073 173.205C9.35569 173.205 11.6215 170.939 11.6215 168.143C11.6215 165.348 9.35569 163.082 6.56073 163.082C3.76577 163.082 1.5 165.348 1.5 168.143C1.5 170.939 3.76577 173.205 6.56073 173.205ZM10.6215 183.328C10.6215 185.571 8.80324 187.39 6.56073 187.39C4.31822 187.39 2.5 185.571 2.5 183.328C2.5 181.085 4.31822 179.266 6.56073 179.266C8.80324 179.266 10.6215 181.085 10.6215 183.328ZM11.6215 183.328C11.6215 186.123 9.35569 188.39 6.56073 188.39C3.76577 188.39 1.5 186.123 1.5 183.328C1.5 180.533 3.76577 178.266 6.56073 178.266C9.35569 178.266 11.6215 180.533 11.6215 183.328Z" fill="url(#paint1_linear)"/>
<path fill-rule="evenodd" clip-rule="evenodd" d="M32.8765 10.7334H32.6667L32.5197 10.8832L5.69782 38.2159L5.55469 38.3617V38.5661V75.0096H6.55469V38.7704L33.0864 11.7334H460.297L500.494 52.942V109.733L486.97 123.76L486.83 123.905V124.107V189.908H487.83V124.309L501.354 110.282L501.494 110.137V109.935V52.7386V52.5351L501.352 52.3894L460.866 10.8843L460.719 10.7334H460.508H32.8765ZM485.306 60.8495C487.548 60.8495 489.366 59.0312 489.366 56.7879C489.366 54.5445 487.548 52.7262 485.306 52.7262C483.063 52.7262 481.245 54.5445 481.245 56.7879C481.245 59.0312 483.063 60.8495 485.306 60.8495ZM485.306 61.8495C488.101 61.8495 490.366 59.5833 490.366 56.7879C490.366 53.9924 488.101 51.7262 485.306 51.7262C482.511 51.7262 480.245 53.9924 480.245 56.7879C480.245 59.5833 482.511 61.8495 485.306 61.8495ZM485.306 76.0343C487.548 76.0343 489.366 74.216 489.366 71.9727C489.366 69.7293 487.548 67.9111 485.306 67.9111C483.063 67.9111 481.245 69.7293 481.245 71.9727C481.245 74.216 483.063 76.0343 485.306 76.0343ZM485.306 77.0343C488.101 77.0343 490.366 74.7681 490.366 71.9727C490.366 69.1772 488.101 66.9111 485.306 66.9111C482.511 66.9111 480.245 69.1772 480.245 71.9727C480.245 74.7681 482.511 77.0343 485.306 77.0343ZM489.366 87.1575C489.366 89.4008 487.548 91.2191 485.306 91.2191C483.063 91.2191 481.245 89.4008 481.245 87.1575C481.245 84.9142 483.063 83.0959 485.306 83.0959C487.548 83.0959 489.366 84.9142 489.366 87.1575ZM490.366 87.1575C490.366 89.9529 488.101 92.2191 485.306 92.2191C482.511 92.2191 480.245 89.9529 480.245 87.1575C480.245 84.362 482.511 82.0959 485.306 82.0959C488.101 82.0959 490.366 84.362 490.366 87.1575ZM485.306 106.404C487.548 106.404 489.366 104.586 489.366 102.342C489.366 100.099 487.548 98.2807 485.306 98.2807C483.063 98.2807 481.245 100.099 481.245 102.342C481.245 104.586 483.063 106.404 485.306 106.404ZM485.306 107.404C488.101 107.404 490.366 105.138 490.366 102.342C490.366 99.5469 488.101 97.2807 485.306 97.2807C482.511 97.2807 480.245 99.5469 480.245 102.342C480.245 105.138 482.511 107.404 485.306 107.404Z" fill="url(#paint2_linear)"/>
<path d="M454.975 293.522H37.9777C37.8955 293.522 37.814 293.506 37.7383 293.474C37.6626 293.442 37.5942 293.395 37.5372 293.335L17.7495 273.043C17.6379 272.927 17.5753 272.773 17.575 272.612V42.4778C17.5752 42.3165 17.6378 42.1615 17.7495 42.0453L37.5372 21.7527C37.5943 21.6938 37.6629 21.647 37.7386 21.6153C37.8143 21.5835 37.8956 21.5674 37.9777 21.5679H454.979C455.062 21.568 455.143 21.5844 455.219 21.6161C455.295 21.6479 455.364 21.6942 455.422 21.7527L475.207 42.0453C475.263 42.1023 475.308 42.1699 475.338 42.2441C475.368 42.3183 475.383 42.3977 475.382 42.4778V272.612C475.383 272.773 475.32 272.928 475.207 273.043L455.422 293.335C455.365 293.395 455.296 293.442 455.22 293.474C455.144 293.506 455.062 293.523 454.979 293.522H454.975ZM38.2355 292.286H454.715L474.144 272.36V42.7295L454.715 22.8024H38.2396L18.8113 42.7295V272.36L38.2355 292.286Z" fill="url(#paint3_linear)"/>
<g filter="url(#filter0_f)">
<path d="M501.5 16.2946C501.5 19.6492 391.61 22.3686 256.055 22.3686C120.499 22.3686 10.6093 19.6492 10.6093 16.2946C10.6093 12.9401 120.499 10.2207 256.055 10.2207C391.61 10.2207 501.5 12.9401 501.5 16.2946Z" fill="url(#paint4_radial)" fill-opacity="0.8"/>
</g>
<g filter="url(#filter1_f)">
<path d="M501.5 300.757C501.5 304.112 391.61 306.831 256.055 306.831C120.499 306.831 10.6093 304.112 10.6093 300.757C10.6093 297.402 120.499 294.683 256.055 294.683C391.61 294.683 501.5 297.402 501.5 300.757Z" fill="url(#paint5_radial)" fill-opacity="0.8"/>
</g>
<g filter="url(#filter2_f)">
<path d="M18.2003 42.1089V258.239" stroke="url(#paint6_linear)" stroke-opacity="0.7"/>
</g>
<g filter="url(#filter3_f)">
<path d="M18.2003 52.2319V248.116" stroke="url(#paint7_linear)" stroke-opacity="0.7"/>
</g>
<g filter="url(#filter4_f)">
<path d="M18.2003 62.3555V227.87" stroke="url(#paint8_linear)" stroke-opacity="0.8"/>
</g>
<g filter="url(#filter5_f)">
<path d="M475.184 42.1089V258.239" stroke="url(#paint9_linear)" stroke-opacity="0.7"/>
</g>
<g filter="url(#filter6_f)">
<path d="M475.184 52.2319V248.116" stroke="url(#paint10_linear)" stroke-opacity="0.7"/>
</g>
<g filter="url(#filter7_f)">
<path d="M475.184 62.3555V227.87" stroke="url(#paint11_linear)" stroke-opacity="0.8"/>
</g>
<g opacity="0.8" filter="url(#filter8_f)">
<path d="M96.6416 22.3687H448.868" stroke="url(#paint12_linear)" stroke-width="3"/>
</g>
<g filter="url(#filter9_f)">
<path d="M127.006 22.3687H419.01" stroke="url(#paint13_linear)" stroke-width="3"/>
</g>
<path d="M127.006 22.3687H419.01" stroke="url(#paint14_linear)"/>
<defs>
<filter id="filter0_f" x="0.609253" y="0.220703" width="510.891" height="32.1479" filterUnits="userSpaceOnUse" color-interpolation-filters="sRGB">
<feFlood flood-opacity="0" result="BackgroundImageFix"/>
<feBlend mode="normal" in="SourceGraphic" in2="BackgroundImageFix" result="shape"/>
<feGaussianBlur stdDeviation="5" result="effect1_foregroundBlur"/>
</filter>
<filter id="filter1_f" x="0.609253" y="284.683" width="510.891" height="32.1478" filterUnits="userSpaceOnUse" color-interpolation-filters="sRGB">
<feFlood flood-opacity="0" result="BackgroundImageFix"/>
<feBlend mode="normal" in="SourceGraphic" in2="BackgroundImageFix" result="shape"/>
<feGaussianBlur stdDeviation="5" result="effect1_foregroundBlur"/>
</filter>
<filter id="filter2_f" x="13.7003" y="38.1089" width="9" height="224.131" filterUnits="userSpaceOnUse" color-interpolation-filters="sRGB">
<feFlood flood-opacity="0" result="BackgroundImageFix"/>
<feBlend mode="normal" in="SourceGraphic" in2="BackgroundImageFix" result="shape"/>
<feGaussianBlur stdDeviation="2" result="effect1_foregroundBlur"/>
</filter>
<filter id="filter3_f" x="13.7003" y="48.2319" width="9" height="203.884" filterUnits="userSpaceOnUse" color-interpolation-filters="sRGB">
<feFlood flood-opacity="0" result="BackgroundImageFix"/>
<feBlend mode="normal" in="SourceGraphic" in2="BackgroundImageFix" result="shape"/>
<feGaussianBlur stdDeviation="2" result="effect1_foregroundBlur"/>
</filter>
<filter id="filter4_f" x="15.7003" y="60.3555" width="5" height="169.515" filterUnits="userSpaceOnUse" color-interpolation-filters="sRGB">
<feFlood flood-opacity="0" result="BackgroundImageFix"/>
<feBlend mode="normal" in="SourceGraphic" in2="BackgroundImageFix" result="shape"/>
<feGaussianBlur stdDeviation="1" result="effect1_foregroundBlur"/>
</filter>
<filter id="filter5_f" x="470.684" y="38.1089" width="9" height="224.131" filterUnits="userSpaceOnUse" color-interpolation-filters="sRGB">
<feFlood flood-opacity="0" result="BackgroundImageFix"/>
<feBlend mode="normal" in="SourceGraphic" in2="BackgroundImageFix" result="shape"/>
<feGaussianBlur stdDeviation="2" result="effect1_foregroundBlur"/>
</filter>
<filter id="filter6_f" x="470.684" y="48.2319" width="9" height="203.884" filterUnits="userSpaceOnUse" color-interpolation-filters="sRGB">
<feFlood flood-opacity="0" result="BackgroundImageFix"/>
<feBlend mode="normal" in="SourceGraphic" in2="BackgroundImageFix" result="shape"/>
<feGaussianBlur stdDeviation="2" result="effect1_foregroundBlur"/>
</filter>
<filter id="filter7_f" x="472.684" y="60.3555" width="5" height="169.515" filterUnits="userSpaceOnUse" color-interpolation-filters="sRGB">
<feFlood flood-opacity="0" result="BackgroundImageFix"/>
<feBlend mode="normal" in="SourceGraphic" in2="BackgroundImageFix" result="shape"/>
<feGaussianBlur stdDeviation="1" result="effect1_foregroundBlur"/>
</filter>
<filter id="filter8_f" x="90.6416" y="14.8687" width="364.227" height="15" filterUnits="userSpaceOnUse" color-interpolation-filters="sRGB">
<feFlood flood-opacity="0" result="BackgroundImageFix"/>
<feBlend mode="normal" in="SourceGraphic" in2="BackgroundImageFix" result="shape"/>
<feGaussianBlur stdDeviation="3" result="effect1_foregroundBlur"/>
</filter>
<filter id="filter9_f" x="121.006" y="14.8687" width="304.004" height="15" filterUnits="userSpaceOnUse" color-interpolation-filters="sRGB">
<feFlood flood-opacity="0" result="BackgroundImageFix"/>
<feBlend mode="normal" in="SourceGraphic" in2="BackgroundImageFix" result="shape"/>
<feGaussianBlur stdDeviation="3" result="effect1_foregroundBlur"/>
</filter>
<linearGradient id="paint0_linear" x1="246.439" y1="176.748" x2="246.692" y2="306.325" gradientUnits="userSpaceOnUse">
<stop stop-color="#5E289F" stop-opacity="0"/>
<stop offset="0.398958" stop-color="#5E289F" stop-opacity="0.2"/>
<stop offset="1" stop-color="#E81B1B"/>
</linearGradient>
<linearGradient id="paint1_linear" x1="6.56073" y1="132.712" x2="6.56073" y2="188.39" gradientUnits="userSpaceOnUse">
<stop stop-color="#236BF6" stop-opacity="0.48"/>
<stop offset="1" stop-color="#82127B" stop-opacity="0.81"/>
</linearGradient>
<linearGradient id="paint2_linear" x1="255.532" y1="10.7334" x2="255.532" y2="176.242" gradientUnits="userSpaceOnUse">
<stop stop-color="#236BF6"/>
<stop offset="1" stop-color="#236BF6" stop-opacity="0"/>
</linearGradient>
<linearGradient id="paint3_linear" x1="245.402" y1="305.882" x2="245.402" y2="9.20846" gradientUnits="userSpaceOnUse">
<stop stop-color="#E81B1B"/>
<stop offset="0.0760415" stop-color="#940667"/>
<stop offset="0.2" stop-color="#672295"/>
<stop offset="0.37" stop-color="#423ABB"/>
<stop offset="0.53" stop-color="#254CD9"/>
<stop offset="0.69" stop-color="#1159EE"/>
<stop offset="0.85" stop-color="#0460FB"/>
<stop offset="1" stop-color="#0063FF"/>
</linearGradient>
<radialGradient id="paint4_radial" cx="0" cy="0" r="1" gradientUnits="userSpaceOnUse" gradientTransform="translate(256.055 16.2946) rotate(90.0001) scale(5.20623 210.382)">
<stop offset="0.419792" stop-color="#396ED6" stop-opacity="0.7"/>
<stop offset="1" stop-color="#C4C4C4" stop-opacity="0"/>
</radialGradient>
<radialGradient id="paint5_radial" cx="0" cy="0" r="1" gradientUnits="userSpaceOnUse" gradientTransform="translate(256.055 300.757) rotate(90.0001) scale(5.20621 210.382)">
<stop offset="0.419792" stop-color="#E81B8A" stop-opacity="0.94"/>
<stop offset="1" stop-color="#C4C4C4" stop-opacity="0"/>
</radialGradient>
<linearGradient id="paint6_linear" x1="18.7003" y1="42.615" x2="18.7003" y2="268.363" gradientUnits="userSpaceOnUse">
<stop stop-color="white" stop-opacity="0"/>
<stop offset="0.497917" stop-color="white"/>
<stop offset="1" stop-color="white" stop-opacity="0"/>
</linearGradient>
<linearGradient id="paint7_linear" x1="18.7003" y1="52.7381" x2="18.7003" y2="248.116" gradientUnits="userSpaceOnUse">
<stop stop-color="white" stop-opacity="0"/>
<stop offset="0.497917" stop-color="white"/>
<stop offset="1" stop-color="white" stop-opacity="0"/>
</linearGradient>
<linearGradient id="paint8_linear" x1="18.7003" y1="72.4787" x2="18.7003" y2="227.87" gradientUnits="userSpaceOnUse">
<stop stop-color="white" stop-opacity="0"/>
<stop offset="0.497917" stop-color="white"/>
<stop offset="1" stop-color="white" stop-opacity="0"/>
</linearGradient>
<linearGradient id="paint9_linear" x1="475.684" y1="42.615" x2="475.684" y2="268.363" gradientUnits="userSpaceOnUse">
<stop stop-color="white" stop-opacity="0"/>
<stop offset="0.497917" stop-color="white"/>
<stop offset="1" stop-color="white" stop-opacity="0"/>
</linearGradient>
<linearGradient id="paint10_linear" x1="475.684" y1="52.7381" x2="475.684" y2="248.116" gradientUnits="userSpaceOnUse">
<stop stop-color="white" stop-opacity="0"/>
<stop offset="0.497917" stop-color="white"/>
<stop offset="1" stop-color="white" stop-opacity="0"/>
</linearGradient>
<linearGradient id="paint11_linear" x1="475.684" y1="72.4787" x2="475.684" y2="227.87" gradientUnits="userSpaceOnUse">
<stop stop-color="white" stop-opacity="0"/>
<stop offset="0.497917" stop-color="white"/>
<stop offset="1" stop-color="white" stop-opacity="0"/>
</linearGradient>
<linearGradient id="paint12_linear" x1="96.6416" y1="22.3687" x2="449.479" y2="22.3687" gradientUnits="userSpaceOnUse">
<stop stop-color="#236BF6" stop-opacity="0"/>
<stop offset="0.4875" stop-color="#236BF6"/>
<stop offset="1" stop-color="#236BF6" stop-opacity="0"/>
</linearGradient>
<linearGradient id="paint13_linear" x1="127.006" y1="22.3687" x2="419.516" y2="22.3687" gradientUnits="userSpaceOnUse">
<stop stop-color="#236BF6" stop-opacity="0"/>
<stop offset="0.4875" stop-color="#236BF6"/>
<stop offset="1" stop-color="#236BF6" stop-opacity="0"/>
</linearGradient>
<linearGradient id="paint14_linear" x1="127.006" y1="22.3687" x2="419.516" y2="22.3687" gradientUnits="userSpaceOnUse">
<stop stop-color="#236BF6" stop-opacity="0"/>
<stop offset="0.4875" stop-color="#ECF2F7"/>
<stop offset="1" stop-color="#236BF6" stop-opacity="0"/>
</linearGradient>
</defs>
</svg>
