<svg id="logo" viewBox="0 0 43 45" xmlns="http://www.w3.org/2000/svg">
<path d="M8.16791 31.8545H6.52953V13.7089H8.16791M8.16791 31.8545V13.7089M8.16791 31.8545C9.46713 31.8545 11.4816 31.8545 13.6974 31.8545M8.16791 13.7089V8.14154M29.2621 14.9461V24.0189C29.2621 27.3181 26.5997 31.8545 22.2989 31.8545C19.8584 31.8545 16.6046 31.8545 13.6974 31.8545M29.2621 14.9461C28.0333 14.1213 26.1901 13.5027 23.7325 13.5027C21.275 13.5027 16.0185 13.5027 13.6974 13.5027M29.2621 14.9461C31.392 16.1008 33.266 17.8329 34.382 19.6887M13.6974 13.5027V8.14154M13.6974 13.5027V31.8545M25.9853 8.14154C25.5757 7.72914 24.0192 6.69815 22.7085 6.69815C21.3978 6.69815 16.2916 6.69815 13.6974 6.69815V8.14154M25.9853 8.14154C24.8384 8.14154 17.179 8.14154 13.6974 8.14154M25.9853 8.14154C28.8525 8.55394 31.5148 9.79114 34.2522 11.4407C35.3877 12.2655 38.0274 14.575 39.5019 17.2143C41.3451 20.5135 41.7547 23.8127 41.7547 26.2871C41.7547 28.7615 40.9355 32.6793 39.7067 34.7413C38.478 36.8033 37.0444 38.4529 35.406 39.8963C33.7676 41.3397 30.9004 42.7831 29.2621 43.4017C27.6237 44.0202 25.9853 44.2264 24.7565 44.2264C23.7735 44.2264 13.2879 44.2264 8.16791 44.2264V37.2157M8.16791 37.2157C5.423 37.2157 2.89782 37.2157 1 37.2157V8.14154H8.16791M8.16791 37.2157C9.95543 37.2157 11.8361 37.2157 13.6974 37.2157M13.6974 37.2157C17.9226 37.2157 22.0478 37.2157 24.7565 37.2157C30.4908 37.2157 34.382 30.8235 34.382 25.6685C34.382 24.2855 34.3839 21.9692 34.382 19.6887M13.6974 37.2157V38.6591C16.2916 38.6591 22.1351 38.6591 24.7565 38.6591C28.4429 38.6591 32.4569 35.7723 34.1772 32.8855C35.8975 29.9987 36.2252 28.3491 36.0204 24.8437C35.9361 23.4003 35.374 21.3383 34.382 19.6887M34.382 19.6887C34.3791 16.1889 34.3522 12.494 34.1772 10.2035C33.7991 5.25475 28.8525 1.86719 27.0093 1.33696C26.5314 1.19949 25.4938 0.924561 24.3469 0.924561H8.16791V8.14154"/>
</svg>
