<svg id="tel" viewBox="0 0 14 28" xmlns="http://www.w3.org/2000/svg">
<path d="M3.96466 26.1476C3.42727 25.6311 2.98576 25.0239 2.64667 24.3339C1.15274 21.2938 0.327475 17.8878 0.260046 14.4841C0.192618 11.0803 0.882433 7.64435 2.25488 4.54752C2.69596 3.55231 3.34878 2.71484 4.19538 2.05837C4.98839 1.44346 5.93359 1.01505 6.92885 0.819477C7.9285 0.62305 8.97129 0.66281 9.94445 0.934453C10.9822 1.22414 11.9083 1.75532 12.6969 2.51335C12.9422 2.7491 12.9895 3.12424 12.8104 3.41347L9.96432 8.00886C9.83544 8.21695 9.60984 8.34552 9.36515 8.35039L6.62885 8.40454C5.4298 12.2865 5.51274 16.4751 6.86452 20.3066L9.60082 20.2524C9.84552 20.2476 10.076 20.3672 10.213 20.5699L13.2388 25.049C13.4292 25.331 13.3968 25.7077 13.161 25.9529C12.403 26.7416 11.4987 27.309 10.4732 27.6396C9.51153 27.9495 8.47113 28.0305 7.46449 27.8738C6.4623 27.7178 5.50088 27.3272 4.68412 26.7441C4.42815 26.5615 4.18809 26.3623 3.96466 26.1476ZM11.2594 3.17703C10.1087 2.29199 8.66131 1.94978 7.20704 2.23555C5.57175 2.55687 4.24765 3.61265 3.57421 5.13225C0.935686 11.086 1.06967 17.8527 3.94182 23.6974C4.67486 25.1891 6.03968 26.1916 7.68648 26.448C9.15091 26.676 10.5836 26.2767 11.6983 25.3468L9.23692 21.7031L6.37925 21.7597C6.07515 21.7657 5.79997 21.5804 5.6912 21.2965C3.99377 16.8677 3.89649 11.9545 5.41726 7.46199C5.51477 7.17397 5.78237 6.97794 6.08644 6.97195L8.94411 6.91536L11.2594 3.17703Z"/>
</svg>
