<?xml version="1.0" encoding="UTF-8"?>
<!DOCTYPE svg PUBLIC "-//W3C//DTD SVG 1.1//EN" "http://www.w3.org/Graphics/SVG/1.1/DTD/svg11.dtd">
<!-- Creator: CorelDRAW -->
<svg xmlns="http://www.w3.org/2000/svg" xml:space="preserve" width="6.82666in" height="6.82666in" style="shape-rendering:geometricPrecision; text-rendering:geometricPrecision; image-rendering:optimizeQuality; fill-rule:evenodd; clip-rule:evenodd"
viewBox="0 0 6.82666 6.82666"
 xmlns:xlink="http://www.w3.org/1999/xlink">
 <defs>
  <style type="text/css">
   <![CDATA[
    .fil1 {fill:#FEFEFE;fill-rule:nonzero}
    .fil0 {fill:url(#id0)}
   ]]>
  </style>
  <linearGradient id="id0" gradientUnits="userSpaceOnUse" x1="1.68784" y1="0.424697" x2="5.13882" y2="6.40196">
   <stop offset="0" style="stop-color:#444FF5"/>
   <stop offset="0.490196" style="stop-color:#21BFDB"/>
   <stop offset="1" style="stop-color:#1DABB6"/>
  </linearGradient>
 </defs>
 <g id="Layer_x0020_1">
  <metadata id="CorelCorpID_0Corel-Layer"/>
  <path class="fil0" d="M6.36936 1.70667c0.942567,1.63257 0.383209,3.72013 -1.24937,4.6627 -1.63257,0.942567 -3.72013,0.383209 -4.6627,-1.24937 -0.942567,-1.63257 -0.383209,-3.72013 1.24937,-4.6627 1.63257,-0.942567 3.72013,-0.383209 4.6627,1.24937z"/>
  <g id="_435907808">
   <path id="_435909584" class="fil1" d="M1.7814 1.56385l3.2844 0 0.0300354 0 0.021252 0.021252 0.123866 0.123866 0.021252 0.021252 0 0.0300354 0 3.2844 0 0.0300394 -0.021252 0.021248 -0.123866 0.123866 -0.021252 0.021252 -0.0300354 0 -3.2844 0 -0.0300394 0 -0.021252 -0.021252 -0.123862 -0.123866 -0.021252 -0.021248 0 -0.0300394 0 -3.2844 0 -0.0300354 0.021252 -0.021252 0.123862 -0.123866 0.021252 -0.021252 0.0300394 0zm3.25436 0.145079l-3.22433 0 -0.0813622 0.0813622 0 3.22433 0.0813622 0.0813622 3.22433 0 0.0813622 -0.0813622 0 -3.22433 -0.0813622 -0.0813622z"/>
   <path id="_435909464" class="fil1" d="M2.093 1.84811c0.0667874,0 0.127264,0.0270827 0.171035,0.0708504 0.0437717,0.0437756 0.0708543,0.104252 0.0708543,0.171039 0,0.0667874 -0.0270827,0.127264 -0.0708543,0.171031 -0.0437717,0.0437756 -0.104248,0.0708543 -0.171035,0.0708543 -0.0667874,0 -0.127264,-0.0270787 -0.171035,-0.0708543 -0.0437677,-0.0437677 -0.0708504,-0.104244 -0.0708504,-0.171031 0,-0.0667835 0.0270827,-0.127264 0.0708504,-0.171039 0.0437717,-0.0437677 0.104252,-0.0708504 0.171035,-0.0708504zm0.0684606 0.173425c-0.0175118,-0.0175079 -0.0417205,-0.0283465 -0.0684606,-0.0283465 -0.0267402,0 -0.0509449,0.0108386 -0.0684606,0.0283465 -0.0175079,0.0175157 -0.0283465,0.0417205 -0.0283465,0.0684646 0,0.0267362 0.0108386,0.0509488 0.0283465,0.0684567 0.0175157,0.0175157 0.0417244,0.0283504 0.0684606,0.0283504 0.0267402,0 0.0509449,-0.0108346 0.0684606,-0.0283504 0.0175118,-0.0175118 0.0283504,-0.0417205 0.0283504,-0.0684567 0,-0.0267402 -0.0108386,-0.0509488 -0.0283504,-0.0684646z"/>
   <path id="_435908984" class="fil1" d="M2.34096 1.16463c0,-0.0400591 -0.0324764,-0.0725394 -0.0725394,-0.0725394 -0.0400591,0 -0.0725354,0.0324803 -0.0725354,0.0725394l0 0.47176c0,0.0400591 0.0324764,0.0725394 0.0725354,0.0725394 0.040063,0 0.0725394,-0.0324803 0.0725394,-0.0725394l0 -0.47176z"/>
   <path id="_435909320" class="fil1" d="M2.34096 5.19028c0,-0.0400591 -0.0324764,-0.0725394 -0.0725394,-0.0725394 -0.0400591,0 -0.0725354,0.0324803 -0.0725354,0.0725394l0 0.471756c0,0.0400591 0.0324764,0.0725394 0.0725354,0.0725394 0.040063,0 0.0725394,-0.0324803 0.0725394,-0.0725394l0 -0.471756z"/>
   <path id="_435909248" class="fil1" d="M2.89135 1.16463c0,-0.0400591 -0.0324803,-0.0725394 -0.0725394,-0.0725394 -0.040063,0 -0.0725394,0.0324803 -0.0725394,0.0725394l0 0.47176c0,0.0400591 0.0324764,0.0725394 0.0725394,0.0725394 0.0400591,0 0.0725394,-0.0324803 0.0725394,-0.0725394l0 -0.47176z"/>
   <path id="_435909104" class="fil1" d="M2.89135 5.19028c0,-0.0400591 -0.0324803,-0.0725394 -0.0725394,-0.0725394 -0.040063,0 -0.0725394,0.0324803 -0.0725394,0.0725394l0 0.471756c0,0.0400591 0.0324764,0.0725394 0.0725394,0.0725394 0.0400591,0 0.0725394,-0.0324803 0.0725394,-0.0725394l0 -0.471756z"/>
   <path id="_435909680" class="fil1" d="M3.44174 1.16463c0,-0.0400591 -0.0324803,-0.0725394 -0.0725394,-0.0725394 -0.0400591,0 -0.0725394,0.0324803 -0.0725394,0.0725394l0 0.47176c0,0.0400591 0.0324803,0.0725394 0.0725394,0.0725394 0.0400591,0 0.0725394,-0.0324803 0.0725394,-0.0725394l0 -0.47176z"/>
   <path id="_435909536" class="fil1" d="M3.44174 5.19028c0,-0.0400591 -0.0324803,-0.0725394 -0.0725394,-0.0725394 -0.0400591,0 -0.0725394,0.0324803 -0.0725394,0.0725394l0 0.471756c0,0.0400591 0.0324803,0.0725394 0.0725394,0.0725394 0.0400591,0 0.0725394,-0.0324803 0.0725394,-0.0725394l0 -0.471756z"/>
   <path id="_435909656" class="fil1" d="M3.99213 1.16463c0,-0.0400591 -0.0324764,-0.0725394 -0.0725394,-0.0725394 -0.0400591,0 -0.0725354,0.0324803 -0.0725354,0.0725394l0 0.47176c0,0.0400591 0.0324764,0.0725394 0.0725354,0.0725394 0.040063,0 0.0725394,-0.0324803 0.0725394,-0.0725394l0 -0.47176z"/>
   <path id="_435908336" class="fil1" d="M3.99213 5.19028c0,-0.0400591 -0.0324764,-0.0725394 -0.0725394,-0.0725394 -0.0400591,0 -0.0725354,0.0324803 -0.0725354,0.0725394l0 0.471756c0,0.0400591 0.0324764,0.0725394 0.0725354,0.0725394 0.040063,0 0.0725394,-0.0324803 0.0725394,-0.0725394l0 -0.471756z"/>
   <path id="_435908288" class="fil1" d="M4.54252 1.16463c0,-0.0400591 -0.0324764,-0.0725394 -0.0725354,-0.0725394 -0.040063,0 -0.0725394,0.0324803 -0.0725394,0.0725394l0 0.47176c0,0.0400591 0.0324764,0.0725394 0.0725394,0.0725394 0.0400591,0 0.0725354,-0.0324803 0.0725354,-0.0725394l0 -0.47176z"/>
   <path id="_435908168" class="fil1" d="M4.54252 5.19028c0,-0.0400591 -0.0324764,-0.0725394 -0.0725354,-0.0725394 -0.040063,0 -0.0725394,0.0324803 -0.0725394,0.0725394l0 0.471756c0,0.0400591 0.0324764,0.0725394 0.0725394,0.0725394 0.0400591,0 0.0725354,-0.0324803 0.0725354,-0.0725394l0 -0.471756z"/>
   <path id="_435908192" class="fil1" d="M1.62429 2.37119c0.0400591,0 0.0725394,-0.0324764 0.0725394,-0.0725354 0,-0.040063 -0.0324803,-0.0725394 -0.0725394,-0.0725394l-0.471756 0c-0.0400591,0 -0.0725354,0.0324764 -0.0725354,0.0725394 0,0.0400591 0.0324764,0.0725354 0.0725354,0.0725354l0.471756 0z"/>
   <path id="_435908672" class="fil1" d="M1.62429 2.92157c0.0400591,0 0.0725394,-0.0324803 0.0725394,-0.0725394 0,-0.0400591 -0.0324803,-0.0725394 -0.0725394,-0.0725394l-0.471756 0c-0.0400591,0 -0.0725354,0.0324803 -0.0725354,0.0725394 0,0.0400591 0.0324764,0.0725394 0.0725354,0.0725394l0.471756 0z"/>
   <path id="_435908648" class="fil1" d="M1.62429 3.47196c0.0400591,0 0.0725394,-0.0324764 0.0725394,-0.0725394 0,-0.0400591 -0.0324803,-0.0725394 -0.0725394,-0.0725394l-0.471756 0c-0.0400591,0 -0.0725354,0.0324803 -0.0725354,0.0725394 0,0.040063 0.0324764,0.0725394 0.0725354,0.0725394l0.471756 0z"/>
   <path id="_435908864" class="fil1" d="M1.62429 4.02235c0.0400591,0 0.0725394,-0.0324764 0.0725394,-0.0725354 0,-0.040063 -0.0324803,-0.0725394 -0.0725394,-0.0725394l-0.471756 0c-0.0400591,0 -0.0725354,0.0324764 -0.0725354,0.0725394 0,0.0400591 0.0324764,0.0725354 0.0725354,0.0725354l0.471756 0z"/>
   <path id="_435908504" class="fil1" d="M1.62429 4.57275c0.0400591,0 0.0725394,-0.0324803 0.0725394,-0.0725394 0,-0.040063 -0.0324803,-0.0725394 -0.0725394,-0.0725394l-0.471756 0c-0.0400591,0 -0.0725354,0.0324764 -0.0725354,0.0725394 0,0.0400591 0.0324764,0.0725394 0.0725354,0.0725394l0.471756 0z"/>
   <path id="_435908816" class="fil1" d="M5.67413 2.37119c0.0400591,0 0.0725354,-0.0324764 0.0725354,-0.0725354 0,-0.040063 -0.0324764,-0.0725394 -0.0725354,-0.0725394l-0.471756 0c-0.0400591,0 -0.0725394,0.0324764 -0.0725394,0.0725394 0,0.0400591 0.0324803,0.0725354 0.0725394,0.0725354l0.471756 0z"/>
   <path id="_435908552" class="fil1" d="M5.67413 2.92157c0.0400591,0 0.0725354,-0.0324803 0.0725354,-0.0725394 0,-0.0400591 -0.0324764,-0.0725394 -0.0725354,-0.0725394l-0.471756 0c-0.0400591,0 -0.0725394,0.0324803 -0.0725394,0.0725394 0,0.0400591 0.0324803,0.0725394 0.0725394,0.0725394l0.471756 0z"/>
   <path id="_435907880" class="fil1" d="M5.67413 3.47196c0.0400591,0 0.0725354,-0.0324764 0.0725354,-0.0725394 0,-0.0400591 -0.0324764,-0.0725394 -0.0725354,-0.0725394l-0.471756 0c-0.0400591,0 -0.0725394,0.0324803 -0.0725394,0.0725394 0,0.040063 0.0324803,0.0725394 0.0725394,0.0725394l0.471756 0z"/>
   <path id="_435907568" class="fil1" d="M5.67413 4.02235c0.0400591,0 0.0725354,-0.0324764 0.0725354,-0.0725354 0,-0.040063 -0.0324764,-0.0725394 -0.0725354,-0.0725394l-0.471756 0c-0.0400591,0 -0.0725394,0.0324764 -0.0725394,0.0725394 0,0.0400591 0.0324803,0.0725354 0.0725394,0.0725354l0.471756 0z"/>
   <path id="_435907760" class="fil1" d="M5.67413 4.57275c0.0400591,0 0.0725354,-0.0324803 0.0725354,-0.0725394 0,-0.040063 -0.0324764,-0.0725394 -0.0725354,-0.0725394l-0.471756 0c-0.0400591,0 -0.0725394,0.0324764 -0.0725394,0.0725394 0,0.0400591 0.0324803,0.0725394 0.0725394,0.0725394l0.471756 0z"/>
  </g>
 </g>
</svg>
