<svg class="footer__background" viewBox="0 0 1922 239" fill="none" xmlns="http://www.w3.org/2000/svg">
      <g opacity="0.6" filter="url(#filter0_f)">
      <path opacity="0.6" d="M415.501 161.61C604.106 161.61 757.001 150.417 757.001 136.61C757.001 122.803 604.106 111.61 415.501 111.61C226.895 111.61 74.0004 122.803 74.0004 136.61C74.0004 150.417 226.895 161.61 415.501 161.61Z" fill="url(#paint0_radial)" fill-opacity="0.4"/>
      </g>
      <path d="M2 187L107.119 106H889" stroke="url(#paint1_linear)" stroke-width="2"/>
      <path class="footer__background-line-shadow" d="M1.00004 234.978L101.805 154.937L1692.22 157.904L1921.28 55.9721" stroke="#E34040" stroke-width="2"/>
      <path d="M1921 1L1684.86 105.599H990.378L960.936 59.0002H319" stroke="url(#paint2_linear)" stroke-width="2"/>
      <g clip-path="url(#clip0)">
      <g opacity="0.6" filter="url(#filter1_f)">
      <path opacity="0.6" d="M1380.5 145C1607.77 145 1792 138.284 1792 130C1792 121.716 1607.77 115 1380.5 115C1153.23 115 969 121.716 969 130C969 138.284 1153.23 145 1380.5 145Z" fill="url(#paint3_radial)" fill-opacity="0.4"/>
      </g>
      </g>
      <g clip-path="url(#clip1)">
      <path d="M960.5 63L991 109.5H292V63H960.5Z" fill="url(#paint4_linear)" fill-opacity="0.7"/>
      </g>
      <defs>
      <filter id="filter0_f" x="70.0004" y="107.61" filterUnits="userSpaceOnUse" color-interpolation-filters="sRGB">
      <feFlood flood-opacity="0" result="BackgroundImageFix"/>
      <feBlend mode="normal" in="SourceGraphic" in2="BackgroundImageFix" result="shape"/>
      <feGaussianBlur stdDeviation="2" result="effect1_foregroundBlur"/>
      </filter>
      <filter id="filter1_f" x="965" y="111" filterUnits="userSpaceOnUse" color-interpolation-filters="sRGB">
      <feFlood flood-opacity="0" result="BackgroundImageFix"/>
      <feBlend mode="normal" in="SourceGraphic" in2="BackgroundImageFix" result="shape"/>
      <feGaussianBlur stdDeviation="2" result="effect1_foregroundBlur"/>
      </filter>
      <radialGradient id="paint0_radial" cx="0" cy="0" r="1" gradientUnits="userSpaceOnUse" gradientTransform="translate(415.501 136.61) rotate(90) scale(25 341.5)">
      <stop stop-color="#3093EF"/>
      <stop offset="1" stop-color="#3093EF" stop-opacity="0"/>
      </radialGradient>
      <linearGradient id="paint1_linear" x1="2" y1="121.921" x2="888.86" y2="133.096" gradientUnits="userSpaceOnUse">
      <stop stop-color="#3093EF"/>
      <stop offset="1" stop-color="#3093EF" stop-opacity="0"/>
      </linearGradient>
      <linearGradient id="paint2_linear" x1="1922" y1="83.9588" x2="65.2283" y2="108.372" gradientUnits="userSpaceOnUse">
      <stop stop-color="#3093EF"/>
      <stop offset="1" stop-color="#3093EF" stop-opacity="0"/>
      </linearGradient>
      <radialGradient id="paint3_radial" cx="0" cy="0" r="1" gradientUnits="userSpaceOnUse" gradientTransform="translate(1380.5 130) rotate(90) scale(15 411.5)">
      <stop stop-color="#3093EF"/>
      <stop offset="1" stop-color="#3093EF" stop-opacity="0"/>
      </radialGradient>
      <linearGradient id="paint4_linear" x1="973.5" y1="86.4999" x2="292.5" y2="86.5001" gradientUnits="userSpaceOnUse">
      <stop stop-color="#3093EF" stop-opacity="0.1"/>
      <stop offset="1" stop-color="#3093EF" stop-opacity="0"/>
      </linearGradient>
      <clipPath id="clip0">
      <rect  fill="white" transform="translate(961 106)"/>
      </clipPath>
      <clipPath id="clip1">
      <rect fill="white" transform="translate(319 53)"/>
      </clipPath>
      </defs>
      </svg>