<svg width="1569" height="945" viewBox="0 0 1569 945" fill="none" xmlns="http://www.w3.org/2000/svg">
<g opacity="0.6" filter="url(#filter0_f)">
<path d="M39 139.454L124.201 62H1441.8L1527 139.454V825.546L1441.8 903H124.201L39 825.546V139.454Z" stroke="url(#paint0_radial)" stroke-width="3"/>
<path d="M39 139.454L124.201 62H1441.8L1527 139.454V825.546L1441.8 903H124.201L39 825.546V139.454Z" stroke="url(#paint1_radial)" stroke-width="3"/>
</g>
<g opacity="0.7" filter="url(#filter1_f)">
<path d="M39 139.454L124.201 62H1441.8L1527 139.454V825.546L1441.8 903H124.201L39 825.546V139.454Z" stroke="url(#paint2_radial)" stroke-width="3"/>
<path d="M39 139.454L124.201 62H1441.8L1527 139.454V825.546L1441.8 903H124.201L39 825.546V139.454Z" stroke="url(#paint3_radial)" stroke-width="3"/>
</g>
<g filter="url(#filter2_f)">
<path d="M39 139.454L124.201 62H1441.8L1527 139.454V825.546L1441.8 903H124.201L39 825.546V139.454Z" stroke="url(#paint4_radial)" stroke-width="2"/>
<path d="M39 139.454L124.201 62H1441.8L1527 139.454V825.546L1441.8 903H124.201L39 825.546V139.454Z" stroke="url(#paint5_radial)" stroke-width="2"/>
</g>
<path d="M39 139.454L124.201 62H1441.8L1527 139.454V825.546L1441.8 903H124.201L39 825.546V139.454Z" stroke="url(#paint6_radial)"/>
<path d="M39 139.454L124.201 62H1441.8L1527 139.454V825.546L1441.8 903H124.201L39 825.546V139.454Z" stroke="url(#paint7_radial)"/>
<g filter="url(#filter3_f)">
<path d="M238 62H124.5L39 139V286" stroke="url(#paint8_linear)"/>
</g>
<path d="M1 317V122.5L112 24.5H451.5L475 1H1090.5L1114 24.5H1365.5" stroke="url(#paint9_linear)"/>
<path d="M1568.5 294L1527.5 253V660.5L1568.5 619.5V294Z" stroke="url(#paint10_linear)"/>
<path d="M1272 904L1231.5 944.5H337.5" stroke="url(#paint11_linear)"/>
<defs>
<filter id="filter0_f" x="32.5" y="55.5" width="1501" height="854" filterUnits="userSpaceOnUse" color-interpolation-filters="sRGB">
<feFlood flood-opacity="0" result="BackgroundImageFix"/>
<feBlend mode="normal" in="SourceGraphic" in2="BackgroundImageFix" result="shape"/>
<feGaussianBlur stdDeviation="2.5" result="effect1_foregroundBlur"/>
</filter>
<filter id="filter1_f" x="34.5" y="57.5" width="1497" height="850" filterUnits="userSpaceOnUse" color-interpolation-filters="sRGB">
<feFlood flood-opacity="0" result="BackgroundImageFix"/>
<feBlend mode="normal" in="SourceGraphic" in2="BackgroundImageFix" result="shape"/>
<feGaussianBlur stdDeviation="1.5" result="effect1_foregroundBlur"/>
</filter>
<filter id="filter2_f" x="36" y="59" width="1494" height="847" filterUnits="userSpaceOnUse" color-interpolation-filters="sRGB">
<feFlood flood-opacity="0" result="BackgroundImageFix"/>
<feBlend mode="normal" in="SourceGraphic" in2="BackgroundImageFix" result="shape"/>
<feGaussianBlur stdDeviation="1" result="effect1_foregroundBlur"/>
</filter>
<filter id="filter3_f" x="35.5" y="58.5" width="205.5" height="230.5" filterUnits="userSpaceOnUse" color-interpolation-filters="sRGB">
<feFlood flood-opacity="0" result="BackgroundImageFix"/>
<feBlend mode="normal" in="SourceGraphic" in2="BackgroundImageFix" result="shape"/>
<feGaussianBlur stdDeviation="1.5" result="effect1_foregroundBlur"/>
</filter>
<radialGradient id="paint0_radial" cx="0" cy="0" r="1" gradientUnits="userSpaceOnUse" gradientTransform="translate(1807.5 1097) rotate(-143.272) scale(965.703 1708.64)">
<stop stop-color="#3093EF" stop-opacity="0.89"/>
<stop offset="1" stop-color="white" stop-opacity="0"/>
<stop offset="1" stop-color="#3093EF" stop-opacity="0"/>
</radialGradient>
<radialGradient id="paint1_radial" cx="0" cy="0" r="1" gradientUnits="userSpaceOnUse" gradientTransform="translate(-350.5 -224.5) rotate(41.6113) scale(1178.33 2084.85)">
<stop stop-color="#E34040"/>
<stop offset="1" stop-color="#E34040" stop-opacity="0"/>
</radialGradient>
<radialGradient id="paint2_radial" cx="0" cy="0" r="1" gradientUnits="userSpaceOnUse" gradientTransform="translate(1807.5 1097) rotate(-143.272) scale(965.703 1708.64)">
<stop stop-color="#3093EF" stop-opacity="0.89"/>
<stop offset="1" stop-color="white" stop-opacity="0"/>
<stop offset="1" stop-color="#3093EF" stop-opacity="0"/>
</radialGradient>
<radialGradient id="paint3_radial" cx="0" cy="0" r="1" gradientUnits="userSpaceOnUse" gradientTransform="translate(-350.5 -224.5) rotate(41.6113) scale(1178.33 2084.85)">
<stop stop-color="#E34040"/>
<stop offset="1" stop-color="#E34040" stop-opacity="0"/>
</radialGradient>
<radialGradient id="paint4_radial" cx="0" cy="0" r="1" gradientUnits="userSpaceOnUse" gradientTransform="translate(1807.5 1097) rotate(-143.272) scale(965.703 1708.64)">
<stop stop-color="#3093EF" stop-opacity="0.89"/>
<stop offset="1" stop-color="white" stop-opacity="0"/>
<stop offset="1" stop-color="#3093EF" stop-opacity="0"/>
</radialGradient>
<radialGradient id="paint5_radial" cx="0" cy="0" r="1" gradientUnits="userSpaceOnUse" gradientTransform="translate(-350.5 -224.5) rotate(41.6113) scale(1178.33 2084.85)">
<stop stop-color="#E34040"/>
<stop offset="1" stop-color="#E34040" stop-opacity="0"/>
</radialGradient>
<radialGradient id="paint6_radial" cx="0" cy="0" r="1" gradientUnits="userSpaceOnUse" gradientTransform="translate(-350.5 -224.5) rotate(41.6113) scale(1178.33 2084.85)">
<stop stop-color="#E34040"/>
<stop offset="1" stop-color="#E34040" stop-opacity="0"/>
</radialGradient>
<radialGradient id="paint7_radial" cx="0" cy="0" r="1" gradientUnits="userSpaceOnUse" gradientTransform="translate(1374.5 938) rotate(-120.778) scale(529.59 937.016)">
<stop stop-color="#3093EF" stop-opacity="0.89"/>
<stop offset="0.617708" stop-color="#3093EF" stop-opacity="0"/>
</radialGradient>
<linearGradient id="paint8_linear" x1="233.5" y1="65.5" x2="39" y2="265" gradientUnits="userSpaceOnUse">
<stop stop-color="#E7EDF1" stop-opacity="0.22"/>
<stop offset="0.529167" stop-color="white"/>
<stop offset="1" stop-color="#E7EDF1" stop-opacity="0.4"/>
</linearGradient>
<linearGradient id="paint9_linear" x1="814.675" y1="5.93752" x2="651.805" y2="501.336" gradientUnits="userSpaceOnUse">
<stop stop-color="#E34040" stop-opacity="0.22"/>
<stop offset="0.529167" stop-color="#E34040"/>
<stop offset="1" stop-color="#E34040" stop-opacity="0.4"/>
</linearGradient>
<linearGradient id="paint10_linear" x1="1548" y1="253" x2="1548" y2="660.5" gradientUnits="userSpaceOnUse">
<stop stop-color="#3093EF" stop-opacity="0"/>
<stop offset="1" stop-color="#3093EF"/>
</linearGradient>
<linearGradient id="paint11_linear" x1="1272" y1="904" x2="338" y2="904" gradientUnits="userSpaceOnUse">
<stop stop-color="#3093EF"/>
<stop offset="1" stop-color="#3093EF" stop-opacity="0"/>
</linearGradient>
</defs>
</svg>
